HIERARCHY
ROOT Hips
{
 OFFSET 0.000000 0.000000 0.000000
 CHANNELS 6 Xposition Yposition Zposition Yrotation Xrotation Zrotation
 JOINT Chest
 {
  OFFSET 0.000000 9.585900 0.002600
  CHANNELS 3 Yrotation Xrotation Zrotation
  JOINT Chest2
  {
   OFFSET 0.000000 9.601200 -0.005300
   CHANNELS 3 Yrotation Xrotation Zrotation
   JOINT Chest3
   {
    OFFSET 0.000000 9.561800 0.000000
    CHANNELS 3 Yrotation Xrotation Zrotation
    JOINT Chest4
    {
     OFFSET 0.000000 9.552100 0.000000
     CHANNELS 3 Yrotation Xrotation Zrotation
     JOINT Neck
     {
      OFFSET 0.000000 14.453000 0.000000
      CHANNELS 3 Yrotation Xrotation Zrotation
      JOINT Head
      {
       OFFSET 0.000000 8.936500 -0.011300
       CHANNELS 3 Yrotation Xrotation Zrotation
       End Site
       {
        OFFSET 0.000000 17.073600 -0.006000
       }
      }
     }
     JOINT RightCollar
     {
      OFFSET -2.921100 9.558500 0.000000
      CHANNELS 3 Yrotation Xrotation Zrotation
      JOINT RightShoulder
      {
       OFFSET -13.519700 0.000000 0.000000
       CHANNELS 3 Yrotation Xrotation Zrotation
       JOINT RightElbow
       {
        OFFSET 0.000000 -29.696600 0.000000
        CHANNELS 3 Yrotation Xrotation Zrotation
        JOINT RightWrist
        {
         OFFSET 0.000000 -24.004700 0.000000
         CHANNELS 3 Yrotation Xrotation Zrotation
         End Site
         {
          OFFSET 0.000000 -17.728500 0.000000
         }
        }
       }
      }
     }
     JOINT LeftCollar
     {
      OFFSET 2.921100 9.558500 0.000000
      CHANNELS 3 Yrotation Xrotation Zrotation
      JOINT LeftShoulder
      {
       OFFSET 13.519700 0.000000 0.000000
       CHANNELS 3 Yrotation Xrotation Zrotation
       JOINT LeftElbow
       {
        OFFSET 0.000000 -29.696600 0.000000
        CHANNELS 3 Yrotation Xrotation Zrotation
        JOINT LeftWrist
        {
         OFFSET 0.000000 -24.004700 0.000000
         CHANNELS 3 Yrotation Xrotation Zrotation
         End Site
         {
          OFFSET 0.000000 -17.728500 0.000000
         }
        }
       }
      }
     }
    }
   }
  }
 }
 JOINT RightHip
 {
  OFFSET -7.771700 -0.012900 -0.001300
  CHANNELS 3 Yrotation Xrotation Zrotation
  JOINT RightKnee
  {
   OFFSET 0.000000 -40.869800 0.001200
   CHANNELS 3 Yrotation Xrotation Zrotation
   JOINT RightAnkle
   {
    OFFSET 0.000000 -39.717900 0.002100
    CHANNELS 3 Yrotation Xrotation Zrotation
    JOINT RightToe
    {
     OFFSET 0.000000 -4.965400 11.033500
     CHANNELS 3 Yrotation Xrotation Zrotation
     End Site
     {
      OFFSET 0.000000 -1.423100 5.872300
     }
    }
   }
  }
 }
 JOINT LeftHip
 {
  OFFSET 7.771700 -0.012900 -0.001300
  CHANNELS 3 Yrotation Xrotation Zrotation
  JOINT LeftKnee
  {
   OFFSET 0.000000 -40.869800 0.001200
   CHANNELS 3 Yrotation Xrotation Zrotation
   JOINT LeftAnkle
   {
    OFFSET 0.000000 -39.717900 0.002100
    CHANNELS 3 Yrotation Xrotation Zrotation
    JOINT LeftToe
    {
     OFFSET 0.000000 -4.965400 11.033500
     CHANNELS 3 Yrotation Xrotation Zrotation
     End Site
     {
      OFFSET 0.000000 -1.423100 5.872300
     }
    }
   }
  }
 }
}
MOTION
Frames: 5
Frame Time: 0.008333
7.813983 48.751480 45.796814 172.129147 -35.795911 -6.912093 6.295125 18.338400 5.485149 0.678110 2.301842 0.591202 1.108438 3.836792 0.987436 5.349603 15.884805 4.809121 -1.817716 16.927959 1.567996 -3.912767 -4.222346 3.530905 -3.070618 -2.337159 -3.676035 4.697828 -6.415856 3.052393 34.815039 -73.398427 -53.687608 -0.153090 -7.536597 2.402245 -10.346798 -0.757629 0.683558 4.485595 -2.050635 -3.733810 -92.497659 -79.732493 105.861852 16.276169 -6.665956 -5.614031 5.584315 -49.364102 9.750197 -88.496070 82.810961 -76.200138 -3.748290 -1.342445 -1.225201 0.202534 -0.985968 -0.232671 -10.151225 -48.915658 15.011436 -153.820985 79.943576 -159.689871 3.649079 -17.822125 6.517312 0.058835 -0.069521 0.021247
7.794681 48.751419 45.823653 172.076134 -35.768335 -6.931757 6.332157 18.345624 5.521899 0.657045 2.354826 0.591146 1.132250 3.799497 0.994213 5.353266 15.906042 4.821277 -1.821853 16.929518 1.552260 -3.915093 -4.221504 3.507573 -3.081263 -2.361294 -3.689265 4.673556 -6.389992 3.014505 34.965625 -73.411630 -53.817852 -0.141262 -7.548642 2.418385 -10.353131 -0.777327 0.678088 4.456559 -2.027189 -3.735418 -92.437359 -79.707829 105.839115 16.192615 -6.577890 -5.737455 5.510444 -49.093353 9.776455 -88.531704 82.949479 -76.227027 -3.648884 -1.430783 -0.986904 0.231584 -1.034336 -0.393610 -10.131472 -48.950214 15.056265 -153.994118 79.986686 -159.844759 3.618100 -17.787343 6.530430 0.064562 -0.065421 0.022794
7.771974 48.752895 45.847570 172.061042 -35.756790 -6.952490 6.311696 18.410122 5.532423 0.682367 2.324209 0.599089 1.133720 3.811474 0.998723 5.361685 15.889187 4.817858 -1.819656 16.910485 1.540855 -3.927132 -4.160142 3.489827 -3.098454 -2.344001 -3.690447 4.638619 -6.360324 2.974680 35.061245 -73.452493 -53.878247 -0.143234 -7.574447 2.487615 -10.373160 -0.743594 0.677746 4.457808 -2.040861 -3.738453 -92.325113 -79.727199 105.733027 16.107547 -6.468692 -5.869251 5.428387 -48.802357 9.760737 -88.479716 83.043066 -76.164977 -3.557172 -1.462684 -0.673122 0.255741 -1.098014 -0.581442 -10.025075 -48.981104 14.983667 -154.375190 80.049145 -160.148516 3.594253 -17.748833 6.540772 0.046795 -0.060178 0.017578
7.751432 48.756821 45.869062 172.057914 -35.767046 -6.989585 6.311846 18.456673 5.573407 0.692041 2.308008 0.597093 1.134144 3.817395 1.000950 5.348742 15.958217 4.847810 -1.820098 16.891713 1.511777 -3.922490 -4.151455 3.459440 -3.082342 -2.412063 -3.724618 4.583341 -6.296966 2.945534 35.128300 -73.512233 -53.895124 -0.152587 -7.605414 2.602107 -10.380841 -0.755539 0.659054 4.486820 -2.110173 -3.749828 -92.053878 -79.785081 105.439696 16.020744 -6.345470 -6.003738 5.321121 -48.491252 9.753265 -88.318349 83.097099 -75.988884 -3.469449 -1.455608 -0.318091 0.258647 -1.151524 -0.769082 -9.982982 -48.983401 14.968511 -154.811432 80.111809 -160.540180 3.535478 -17.675941 6.531432 0.032670 -0.090750 0.037383
7.736953 48.761886 45.891104 172.066153 -35.781508 -7.064793 6.319482 18.495309 5.650430 0.695655 2.301470 0.595590 1.134316 3.823227 1.003282 5.338460 16.025135 4.878725 -1.830025 16.939353 1.498750 -3.904889 -4.226316 3.417190 -3.068016 -2.476795 -3.760620 4.528146 -6.231673 2.920116 35.180260 -73.576736 -53.893721 -0.163661 -7.631461 2.754669 -10.375250 -0.803339 0.635470 4.493041 -2.091850 -3.739844 -92.105875 -79.881927 105.475069 15.932418 -6.213048 -6.138940 5.162752 -48.177910 9.789439 -88.020284 83.121135 -75.673059 -3.352974 -1.455951 0.045616 0.204412 -1.146822 -0.936268 -9.923746 -48.981739 14.957699 -155.410359 80.184288 -161.051529 3.453754 -17.616835 6.530893 -0.002803 -0.092308 0.037227
